<svg xmlns="http://www.w3.org/2000/svg" width="300" height="300" viewBox="0 0 300 300">
<path d="M 145.01 60.01 L 145.01 60.68 C 145.01 61.59 145.75 62.32 146.66 62.32 C 147.57 62.32 148.31 61.59 148.31 60.68 L 148.31 60.01 C 148.31 59.10 147.57 58.37 146.66 58.37 C 145.75 58.37 145.01 59.10 145.01 60.01 Z M 144.99 60.68 L 144.99 61.53 C 144.99 62.45 145.74 63.19 146.66 63.19 C 147.58 63.19 148.32 62.45 148.32 61.53 L 148.32 60.68 C 148.32 59.76 147.58 59.01 146.66 59.01 C 145.74 59.01 144.99 59.76 144.99 60.68 Z M 144.98 61.53 L 144.98 62.76 C 144.98 63.69 145.73 64.44 146.66 64.44 C 147.58 64.44 148.34 63.69 148.34 62.76 L 148.34 61.53 C 148.34 60.60 147.59 59.85 146.66 59.85 C 145.73 59.85 144.98 60.60 144.98 61.53 Z M 144.96 62.76 L 144.96 63.77 C 144.96 64.71 145.72 65.47 146.65 65.47 C 147.59 65.47 148.35 64.71 148.35 63.77 L 148.36 62.76 C 148.36 61.82 147.60 61.06 146.66 61.06 C 145.72 61.06 144.96 61.82 144.96 62.76 Z M 144.93 63.77 L 144.93 64.41 C 144.93 65.36 145.70 66.14 146.65 66.14 C 147.60 66.14 148.38 65.37 148.38 64.42 L 148.38 63.78 C 148.38 62.82 147.61 62.05 146.66 62.05 C 145.71 62.05 144.93 62.82 144.93 63.77 Z M 144.91 64.41 L 144.91 65.13 C 144.90 66.09 145.69 66.88 146.65 66.88 C 147.62 66.88 148.40 66.10 148.40 65.13 L 148.40 64.42 C 148.40 63.45 147.62 62.67 146.66 62.67 C 145.69 62.67 144.91 63.45 144.91 64.41 Z M 144.88 65.13 L 144.88 65.92 C 144.88 66.90 145.67 67.70 146.65 67.70 C 147.63 67.70 148.42 66.91 148.42 65.93 L 148.43 65.14 C 148.43 64.16 147.64 63.36 146.66 63.36 C 145.68 63.35 144.88 64.15 144.88 65.13 Z M 144.85 65.92 L 144.85 66.80 C 144.84 67.79 145.65 68.60 146.64 68.60 C 147.63 68.61 148.44 67.81 148.45 66.81 L 148.45 65.93 C 148.45 64.94 147.65 64.13 146.66 64.13 C 145.67 64.12 144.86 64.93 144.85 65.92 Z M 144.82 66.79 L 144.82 67.76 C 144.81 68.77 145.62 69.59 146.63 69.59 C 147.64 69.60 148.46 68.79 148.47 67.78 L 148.47 66.81 C 148.48 65.81 147.67 64.99 146.66 64.98 C 145.65 64.97 144.83 65.79 144.82 66.79 Z M 144.79 67.76 L 144.79 68.81 C 144.78 69.83 145.60 70.67 146.62 70.68 C 147.64 70.68 148.48 69.86 148.48 68.84 L 148.49 67.78 C 148.50 66.76 147.68 65.93 146.66 65.92 C 145.63 65.91 144.80 66.74 144.79 67.76 Z M 144.76 68.81 L 144.75 69.96 C 144.74 71.00 145.57 71.84 146.61 71.85 C 147.64 71.86 148.49 71.03 148.50 70.00 L 148.51 68.84 C 148.52 67.81 147.69 66.96 146.65 66.95 C 145.62 66.94 144.77 67.78 144.76 68.81 Z M 144.72 69.96 L 144.71 71.21 C 144.70 72.26 145.54 73.12 146.59 73.13 C 147.64 73.14 148.50 72.30 148.51 71.25 L 148.52 70.00 C 148.53 68.95 147.69 68.09 146.64 68.08 C 145.59 68.07 144.74 68.91 144.72 69.96 Z M 144.69 71.21 L 144.67 72.56 C 144.66 73.63 145.51 74.50 146.57 74.51 C 147.64 74.52 148.51 73.67 148.52 72.61 L 148.54 71.25 C 148.55 70.19 147.70 69.32 146.63 69.31 C 145.57 69.29 144.70 70.14 144.69 71.21 Z M 144.65 72.56 L 144.63 73.97 C 144.61 75.05 145.47 75.93 146.55 75.94 C 147.63 75.96 148.51 75.10 148.53 74.02 L 148.55 72.61 C 148.56 71.54 147.70 70.65 146.62 70.64 C 145.54 70.62 144.66 71.48 144.65 72.56 Z M 144.61 73.97 L 144.60 74.72 C 144.59 75.81 145.45 76.70 146.54 76.72 C 147.62 76.73 148.51 75.87 148.53 74.78 L 148.54 74.02 C 148.56 72.94 147.69 72.05 146.60 72.03 C 145.52 72.02 144.63 72.88 144.61 73.97 Z M 144.60 74.72 L 144.59 75.51 C 144.57 76.59 145.44 77.49 146.52 77.50 C 147.61 77.52 148.50 76.65 148.52 75.57 L 148.53 74.78 C 148.55 73.70 147.68 72.80 146.60 72.79 C 145.51 72.77 144.62 73.64 144.60 74.72 Z M 144.58 75.51 L 144.57 76.32 C 144.55 77.40 145.42 78.30 146.51 78.32 C 147.60 78.34 148.49 77.47 148.51 76.38 L 148.52 75.57 C 148.54 74.48 147.67 73.59 146.59 73.57 C 145.50 73.55 144.60 74.42 144.58 75.51 Z M 144.57 76.31 L 144.55 77.15 C 144.53 78.24 145.40 79.14 146.49 79.16 C 147.58 79.18 148.48 78.31 148.50 77.22 L 148.51 76.38 C 148.53 75.29 147.66 74.39 146.57 74.38 C 145.48 74.36 144.59 75.22 144.57 76.31 Z M 144.55 77.15 L 144.53 78.01 C 144.51 79.10 145.38 80.00 146.47 80.02 C 147.57 80.04 148.47 79.17 148.49 78.08 L 148.50 77.22 C 148.52 76.13 147.65 75.23 146.56 75.21 C 145.47 75.19 144.57 76.06 144.55 77.15 Z M 144.53 78.01 L 144.51 78.90 C 144.49 79.99 145.36 80.89 146.45 80.91 C 147.55 80.93 148.45 80.07 148.47 78.97 L 148.49 78.09 C 148.51 76.99 147.64 76.09 146.55 76.07 C 145.46 76.05 144.55 76.92 144.53 78.01 Z M 144.51 78.89 L 144.49 79.80 C 144.47 80.90 145.34 81.81 146.43 81.83 C 147.53 81.85 148.44 80.98 148.46 79.89 L 148.48 78.97 C 148.50 77.88 147.63 76.97 146.53 76.95 C 145.44 76.93 144.53 77.80 144.51 78.89 Z M 144.49 79.80 L 144.47 80.74 C 144.44 81.83 145.31 82.74 146.41 82.77 C 147.51 82.79 148.42 81.92 148.44 80.82 L 148.46 79.89 C 148.48 78.79 147.61 77.88 146.52 77.86 C 145.42 77.83 144.51 78.70 144.49 79.80 Z M 144.46 80.73 L 144.44 81.69 C 144.42 82.79 145.29 83.70 146.39 83.73 C 147.49 83.75 148.40 82.88 148.42 81.78 L 148.44 80.83 C 148.47 79.73 147.60 78.82 146.50 78.79 C 145.40 78.77 144.49 79.64 144.46 80.73 Z M 144.44 81.69 L 144.42 82.67 C 144.39 83.77 145.26 84.69 146.36 84.71 C 147.46 84.74 148.37 83.87 148.40 82.77 L 148.42 81.79 C 148.45 80.69 147.58 79.77 146.48 79.75 C 145.38 79.72 144.47 80.59 144.44 81.69 Z M 144.41 82.67 L 144.39 83.67 C 144.36 84.78 145.23 85.69 146.33 85.72 C 147.43 85.75 148.35 84.88 148.38 83.78 L 148.40 82.77 C 148.43 81.67 147.56 80.75 146.46 80.72 C 145.36 80.70 144.44 81.57 144.41 82.67 Z M 144.38 83.67 L 144.35 84.70 C 144.33 85.80 145.20 86.72 146.30 86.75 C 147.40 86.78 148.32 85.91 148.35 84.81 L 148.38 83.78 C 148.41 82.68 147.54 81.76 146.44 81.73 C 145.33 81.70 144.41 82.57 144.38 83.67 Z M 144.35 84.70 L 144.32 85.75 C 144.29 86.85 145.16 87.77 146.27 87.81 C 147.37 87.84 148.30 86.97 148.33 85.86 L 148.36 84.81 C 148.39 83.70 147.52 82.78 146.41 82.75 C 145.31 82.72 144.38 83.59 144.35 84.70 Z M 144.32 85.74 L 144.29 86.81 C 144.25 87.92 145.12 88.85 146.23 88.88 C 147.34 88.91 148.27 88.04 148.30 86.93 L 148.33 85.86 C 148.36 84.76 147.49 83.83 146.38 83.80 C 145.28 83.76 144.35 84.63 144.32 85.74 Z M 144.28 86.81 L 144.25 87.90 C 144.21 89.01 145.08 89.94 146.19 89.97 C 147.30 90.01 148.23 89.14 148.27 88.03 L 148.30 86.94 C 148.34 85.83 147.47 84.90 146.36 84.86 C 145.25 84.83 144.32 85.70 144.28 86.81 Z M 144.25 87.90 L 144.21 89.01 C 144.17 90.12 145.04 91.05 146.15 91.09 C 147.27 91.13 148.20 90.26 148.23 89.14 L 148.27 88.03 C 148.31 86.92 147.44 85.99 146.32 85.95 C 145.21 85.92 144.28 86.79 144.25 87.90 Z M 144.21 89.01 L 144.17 90.14 C 144.13 91.25 145.00 92.19 146.11 92.23 C 147.23 92.27 148.16 91.39 148.20 90.28 L 148.24 89.15 C 148.28 88.04 147.40 87.10 146.29 87.06 C 145.18 87.02 144.24 87.90 144.21 89.01 Z M 144.16 90.14 L 144.12 91.29 C 144.08 92.41 144.95 93.34 146.07 93.38 C 147.18 93.42 148.12 92.55 148.16 91.44 L 148.20 90.28 C 148.24 89.17 147.37 88.23 146.26 88.19 C 145.14 88.15 144.20 89.02 144.16 90.14 Z M 144.12 91.29 L 144.07 92.46 C 144.03 93.58 144.90 94.52 146.02 94.56 C 147.14 94.60 148.07 93.73 148.12 92.61 L 148.16 91.44 C 148.20 90.32 147.33 89.38 146.22 89.34 C 145.10 89.30 144.16 90.17 144.12 91.29 Z M 144.07 92.46 L 144.02 93.65 C 143.98 94.77 144.85 95.71 145.97 95.75 C 147.09 95.80 148.03 94.93 148.07 93.81 L 148.12 92.62 C 148.17 91.50 147.29 90.56 146.18 90.51 C 145.06 90.47 144.11 91.34 144.07 92.46 Z M 144.02 93.64 L 143.97 94.85 C 143.92 95.97 144.79 96.92 145.91 96.97 C 147.03 97.01 147.98 96.14 148.03 95.02 L 148.08 93.81 C 148.12 92.69 147.25 91.75 146.13 91.70 C 145.01 91.65 144.07 92.52 144.02 93.64 Z M 143.97 94.85 L 143.92 95.85 C 143.87 96.97 144.74 97.92 145.87 97.97 C 146.99 98.02 147.94 97.14 147.99 96.02 L 148.03 95.03 C 148.08 93.90 147.21 92.96 146.09 92.91 C 144.96 92.86 144.01 93.73 143.97 94.85 Z M 143.92 95.84 L 143.88 96.75 C 143.83 97.88 144.70 98.83 145.82 98.88 C 146.95 98.93 147.90 98.06 147.95 96.94 L 147.99 96.03 C 148.04 94.90 147.17 93.95 146.05 93.90 C 144.92 93.85 143.97 94.72 143.92 95.84 Z M 143.88 96.75 L 143.84 97.67 C 143.78 98.80 144.65 99.75 145.78 99.80 C 146.90 99.85 147.86 98.98 147.91 97.86 L 147.95 96.94 C 148.00 95.81 147.13 94.86 146.01 94.81 C 144.88 94.76 143.93 95.63 143.88 96.75 Z M 143.83 97.67 L 143.79 98.60 C 143.74 99.72 144.61 100.68 145.73 100.73 C 146.86 100.78 147.81 99.91 147.87 98.79 L 147.91 97.86 C 147.96 96.73 147.09 95.78 145.97 95.73 C 144.84 95.67 143.89 96.54 143.83 97.67 Z M 143.79 98.59 L 143.74 99.53 C 143.69 100.66 144.56 101.62 145.68 101.67 C 146.81 101.72 147.77 100.85 147.82 99.73 L 147.87 98.79 C 147.92 97.66 147.05 96.71 145.93 96.65 C 144.80 96.60 143.84 97.47 143.79 98.59 Z M 143.74 99.53 L 143.69 100.47 C 143.64 101.60 144.51 102.56 145.64 102.62 C 146.76 102.67 147.72 101.80 147.78 100.67 L 147.83 99.73 C 147.88 98.60 147.01 97.64 145.88 97.59 C 144.75 97.53 143.79 98.40 143.74 99.53 Z M 143.69 100.47 L 143.64 101.42 C 143.59 102.55 144.46 103.52 145.59 103.57 C 146.72 103.63 147.68 102.76 147.73 101.63 L 147.78 100.68 C 147.84 99.55 146.97 98.58 145.84 98.53 C 144.71 98.47 143.75 99.34 143.69 100.47 Z M 143.64 101.42 L 143.59 102.38 C 143.53 103.51 144.40 104.48 145.54 104.54 C 146.67 104.59 147.63 103.72 147.69 102.59 L 147.74 101.63 C 147.79 100.50 146.92 99.54 145.79 99.48 C 144.66 99.42 143.70 100.29 143.64 101.42 Z M 143.59 102.38 L 143.54 103.35 C 143.48 104.48 144.35 105.45 145.48 105.51 C 146.62 105.57 147.58 104.70 147.64 103.56 L 147.69 102.59 C 147.75 101.46 146.88 100.50 145.75 100.44 C 144.61 100.38 143.65 101.25 143.59 102.38 Z M 143.54 103.35 L 143.49 104.32 C 143.43 105.46 144.30 106.42 145.43 106.48 C 146.56 106.54 147.53 105.67 147.59 104.54 L 147.64 103.56 C 147.70 102.43 146.83 101.46 145.70 101.40 C 144.56 101.34 143.60 102.21 143.54 103.35 Z M 143.48 104.32 L 143.43 105.30 C 143.37 106.44 144.24 107.41 145.38 107.47 C 146.51 107.53 147.48 106.66 147.54 105.52 L 147.59 104.54 C 147.65 103.41 146.78 102.44 145.65 102.38 C 144.51 102.32 143.54 103.19 143.48 104.32 Z M 143.43 105.30 L 143.37 106.29 C 143.31 107.43 144.18 108.40 145.32 108.46 C 146.46 108.52 147.43 107.65 147.49 106.51 L 147.54 105.53 C 147.60 104.39 146.73 103.42 145.60 103.36 C 144.46 103.29 143.49 104.17 143.43 105.30 Z M 143.37 106.29 L 143.32 107.29 C 143.25 108.42 144.13 109.40 145.26 109.46 C 146.40 109.52 147.37 108.65 147.44 107.51 L 147.49 106.52 C 147.55 105.38 146.68 104.41 145.54 104.34 C 144.41 104.28 143.43 105.15 143.37 106.29 Z M 143.31 107.28 L 143.26 108.29 C 143.20 109.42 144.07 110.40 145.21 110.46 C 146.35 110.53 147.32 109.65 147.38 108.51 L 147.44 107.51 C 147.50 106.37 146.63 105.40 145.49 105.34 C 144.35 105.27 143.38 106.14 143.31 107.28 Z M 143.26 108.28 L 143.20 109.29 C 143.14 110.43 144.01 111.41 145.15 111.47 C 146.29 111.54 147.27 110.66 147.33 109.52 L 147.39 108.52 C 147.45 107.38 146.58 106.40 145.44 106.33 C 144.30 106.27 143.32 107.14 143.26 108.28 Z M 143.20 109.29 L 143.14 110.30 C 143.08 111.44 143.95 112.42 145.09 112.49 C 146.23 112.55 147.21 111.68 147.27 110.54 L 147.33 109.52 C 147.40 108.38 146.52 107.40 145.38 107.34 C 144.24 107.27 143.26 108.15 143.20 109.29 Z M 143.14 110.30 L 143.08 111.32 C 143.01 112.46 143.89 113.44 145.03 113.51 C 146.17 113.57 147.15 112.70 147.22 111.55 L 147.28 110.54 C 147.34 109.39 146.47 108.41 145.33 108.35 C 144.18 108.28 143.20 109.16 143.14 110.30 Z M 143.08 111.32 L 143.02 112.34 C 142.95 113.48 143.83 114.46 144.97 114.53 C 146.12 114.60 147.10 113.72 147.16 112.58 L 147.22 111.56 C 147.29 110.41 146.41 109.43 145.27 109.36 C 144.12 109.30 143.14 110.17 143.08 111.32 Z M 143.02 112.34 L 142.96 113.36 C 142.89 114.51 143.76 115.49 144.91 115.56 C 146.06 115.63 147.04 114.75 147.11 113.61 L 147.16 112.58 C 147.23 111.43 146.36 110.45 145.21 110.38 C 144.07 110.32 143.08 111.19 143.02 112.34 Z M 142.95 113.36 L 142.89 114.39 C 142.83 115.54 143.70 116.53 144.85 116.59 C 146.00 116.66 146.98 115.78 147.05 114.64 L 147.11 113.61 C 147.17 112.46 146.30 111.48 145.15 111.41 C 144.01 111.34 143.02 112.22 142.95 113.36 Z M 142.89 114.39 L 142.83 115.43 C 142.76 116.58 143.64 117.56 144.79 117.63 C 145.94 117.70 146.92 116.82 146.99 115.67 L 147.05 114.64 C 147.12 113.49 146.24 112.50 145.09 112.44 C 143.94 112.37 142.96 113.25 142.89 114.39 Z M 142.83 115.43 L 142.77 116.47 C 142.70 117.62 143.58 118.60 144.73 118.67 C 145.87 118.74 146.86 117.86 146.93 116.71 L 146.99 115.67 C 147.06 114.52 146.18 113.54 145.03 113.47 C 143.88 113.40 142.90 114.28 142.83 115.43 Z M 142.76 116.47 L 142.70 117.51 C 142.63 118.66 143.51 119.65 144.66 119.72 C 145.81 119.78 146.80 118.91 146.87 117.76 L 146.93 116.71 C 147.00 115.56 146.12 114.57 144.97 114.51 C 143.82 114.44 142.83 115.31 142.76 116.47 Z M 142.70 117.51 L 142.64 118.55 C 142.57 119.70 143.45 120.69 144.60 120.76 C 145.75 120.83 146.74 119.95 146.81 118.80 L 146.87 117.76 C 146.94 116.60 146.06 115.61 144.91 115.54 C 143.76 115.48 142.77 116.35 142.70 117.51 Z M 142.64 118.55 L 142.57 119.60 C 142.50 120.75 143.38 121.74 144.54 121.81 C 145.69 121.88 146.68 121.00 146.75 119.85 L 146.81 118.80 C 146.88 117.65 146.00 116.66 144.85 116.59 C 143.70 116.52 142.70 117.40 142.64 118.55 Z M 142.57 119.60 L 142.51 120.65 C 142.44 121.80 143.32 122.80 144.47 122.87 C 145.63 122.93 146.62 122.05 146.69 120.90 L 146.75 119.85 C 146.82 118.69 145.94 117.70 144.79 117.63 C 143.63 117.56 142.64 118.44 142.57 119.60 Z M 142.50 120.65 L 142.44 121.70 C 142.37 122.86 143.25 123.85 144.41 123.92 C 145.57 123.99 146.56 123.11 146.63 121.95 L 146.69 120.90 C 146.76 119.74 145.88 118.75 144.72 118.68 C 143.57 118.61 142.57 119.49 142.50 120.65 Z M 142.44 121.70 L 142.38 122.75 C 142.31 123.91 143.19 124.91 144.35 124.98 C 145.50 125.05 146.50 124.16 146.57 123.01 L 146.63 121.95 C 146.70 120.79 145.82 119.80 144.66 119.73 C 143.50 119.66 142.51 120.54 142.44 121.70 Z M 142.37 122.75 L 142.31 123.81 C 142.24 124.97 143.12 125.96 144.28 126.03 C 145.44 126.10 146.44 125.22 146.51 124.06 L 146.57 123.01 C 146.64 121.85 145.76 120.85 144.60 120.78 C 143.44 120.71 142.44 121.59 142.37 122.75 Z M 142.31 123.81 L 142.24 124.85 C 142.17 126.01 143.06 127.01 144.22 127.08 C 145.38 127.15 146.38 126.27 146.45 125.10 L 146.51 124.06 C 146.58 122.90 145.70 121.90 144.53 121.83 C 143.37 121.76 142.38 122.65 142.31 123.81 Z M 142.24 124.85 L 142.18 125.88 C 142.11 127.04 142.99 128.04 144.16 128.11 C 145.32 128.18 146.32 127.30 146.39 126.14 L 146.45 125.11 C 146.52 123.94 145.63 122.95 144.47 122.87 C 143.31 122.80 142.31 123.69 142.24 124.85 Z M 142.18 125.88 L 142.12 126.92 C 142.04 128.08 142.93 129.08 144.09 129.15 C 145.26 129.22 146.25 128.33 146.32 127.17 L 146.39 126.14 C 146.46 124.98 145.57 123.98 144.41 123.91 C 143.25 123.84 142.25 124.72 142.18 125.88 Z M 142.11 126.92 L 142.05 127.95 C 141.98 129.11 142.87 130.11 144.03 130.18 C 145.19 130.25 146.19 129.37 146.26 128.20 L 146.33 127.17 C 146.40 126.01 145.51 125.01 144.35 124.94 C 143.18 124.87 142.18 125.75 142.11 126.92 Z M 142.05 127.95 L 141.99 128.98 C 141.92 130.15 142.80 131.15 143.97 131.22 C 145.13 131.29 146.13 130.40 146.20 129.24 L 146.27 128.20 C 146.34 127.04 145.45 126.04 144.28 125.97 C 143.12 125.90 142.12 126.79 142.05 127.95 Z M 141.98 128.98 L 141.92 130.02 C 141.85 131.18 142.74 132.18 143.91 132.25 C 145.07 132.32 146.07 131.44 146.14 130.27 L 146.21 129.24 C 146.28 128.07 145.39 127.07 144.22 127.00 C 143.06 126.93 142.05 127.82 141.98 128.98 Z M 141.92 130.02 L 141.86 131.05 C 141.79 132.22 142.68 133.22 143.84 133.29 C 145.01 133.36 146.01 132.47 146.08 131.30 L 146.15 130.27 C 146.22 129.10 145.33 128.10 144.16 128.03 C 142.99 127.96 141.99 128.85 141.92 130.02 Z M 141.86 131.05 L 141.80 132.08 C 141.73 133.25 142.62 134.25 143.78 134.32 C 144.95 134.39 145.95 133.50 146.02 132.33 L 146.09 131.30 C 146.16 130.13 145.27 129.13 144.10 129.06 C 142.93 128.99 141.93 129.88 141.86 131.05 Z M 141.79 132.08 L 141.73 133.11 C 141.66 134.28 142.55 135.28 143.72 135.35 C 144.89 135.42 145.90 134.53 145.96 133.36 L 146.03 132.33 C 146.10 131.16 145.20 130.16 144.04 130.09 C 142.87 130.02 141.86 130.91 141.79 132.08 Z M 141.73 133.11 L 141.67 134.14 C 141.60 135.31 142.49 136.31 143.66 136.38 C 144.83 136.45 145.84 135.56 145.91 134.39 L 145.97 133.36 C 146.04 132.19 145.14 131.19 143.97 131.12 C 142.80 131.05 141.80 131.94 141.73 133.11 Z M 141.67 134.14 L 141.61 135.16 C 141.54 136.34 142.43 137.34 143.60 137.41 C 144.77 137.48 145.78 136.59 145.85 135.41 L 145.91 134.39 C 145.98 133.22 145.08 132.21 143.91 132.14 C 142.74 132.07 141.74 132.97 141.67 134.14 Z M 141.60 135.17 L 141.54 136.19 C 141.48 137.36 142.37 138.37 143.54 138.44 C 144.71 138.50 145.72 137.61 145.79 136.44 L 145.85 135.41 C 145.92 134.24 145.02 133.24 143.85 133.17 C 142.68 133.10 141.67 133.99 141.60 135.17 Z M 141.54 136.19 L 141.48 137.21 C 141.41 138.38 142.31 139.39 143.48 139.46 C 144.66 139.53 145.66 138.63 145.73 137.46 L 145.79 136.44 C 145.86 135.26 144.96 134.26 143.79 134.19 C 142.62 134.12 141.61 135.02 141.54 136.19 Z M 141.48 137.21 L 141.42 138.23 C 141.35 139.40 142.25 140.41 143.43 140.48 C 144.60 140.55 145.61 139.65 145.68 138.47 L 145.73 137.46 C 145.80 136.28 144.90 135.28 143.73 135.21 C 142.56 135.14 141.55 136.04 141.48 137.21 Z M 141.42 138.23 L 141.36 139.24 C 141.29 140.42 142.19 141.43 143.37 141.49 C 144.54 141.56 145.55 140.66 145.62 139.49 L 145.68 138.47 C 145.74 137.30 144.85 136.29 143.67 136.22 C 142.50 136.16 141.49 137.05 141.42 138.23 Z M 141.36 139.24 L 141.30 140.25 C 141.24 141.43 142.14 142.44 143.31 142.51 C 144.49 142.57 145.50 141.67 145.56 140.50 L 145.62 139.49 C 145.69 138.31 144.79 137.30 143.61 137.23 C 142.44 137.17 141.43 138.07 141.36 139.24 Z M 141.30 140.25 L 141.24 141.26 C 141.18 142.44 142.08 143.45 143.26 143.51 C 144.43 143.58 145.44 142.68 145.51 141.50 L 145.57 140.50 C 145.63 139.32 144.73 138.31 143.55 138.24 C 142.38 138.18 141.37 139.08 141.30 140.25 Z M 141.24 141.26 L 141.19 142.26 C 141.12 143.44 142.02 144.45 143.20 144.52 C 144.38 144.58 145.39 143.68 145.45 142.50 L 145.51 141.50 C 145.58 140.32 144.67 139.31 143.50 139.25 C 142.32 139.18 141.31 140.08 141.24 141.26 Z M 141.18 142.26 L 141.13 143.26 C 141.06 144.44 141.97 145.45 143.15 145.52 C 144.33 145.58 145.34 144.68 145.40 143.50 L 145.46 142.50 C 145.52 141.32 144.62 140.31 143.44 140.25 C 142.26 140.18 141.25 141.08 141.18 142.26 Z M 141.13 143.26 L 141.07 144.25 C 141.01 145.44 141.91 146.45 143.09 146.51 C 144.28 146.57 145.29 145.67 145.35 144.49 L 145.40 143.50 C 145.47 142.32 144.56 141.31 143.38 141.24 C 142.20 141.18 141.19 142.08 141.13 143.26 Z M 141.07 144.26 L 141.02 145.24 C 140.95 146.42 141.86 147.43 143.04 147.50 C 144.23 147.56 145.24 146.65 145.30 145.47 L 145.35 144.49 C 145.42 143.30 144.51 142.29 143.33 142.23 C 142.14 142.17 141.13 143.07 141.07 144.26 Z M 141.02 145.24 L 140.96 146.22 C 140.90 147.41 141.81 148.42 142.99 148.48 C 144.18 148.54 145.19 147.63 145.25 146.45 L 145.30 145.47 C 145.36 144.29 144.46 143.28 143.27 143.22 C 142.09 143.15 141.08 144.06 141.02 145.24 Z M 140.96 146.23 L 140.91 147.20 C 140.85 148.38 141.76 149.40 142.94 149.46 C 144.13 149.52 145.14 148.61 145.20 147.42 L 145.25 146.45 C 145.31 145.27 144.40 144.26 143.22 144.19 C 142.03 144.13 141.02 145.04 140.96 146.23 Z M 140.91 147.20 L 140.86 148.17 C 140.80 149.36 141.71 150.37 142.90 150.43 C 144.08 150.49 145.09 149.58 145.15 148.39 L 145.20 147.42 C 145.26 146.24 144.35 145.23 143.17 145.17 C 141.98 145.11 140.97 146.02 140.91 147.20 Z M 140.86 148.17 L 140.81 149.13 C 140.75 150.32 141.66 151.33 142.85 151.39 C 144.04 151.45 145.05 150.54 145.11 149.35 L 145.15 148.39 C 145.21 147.20 144.30 146.19 143.11 146.13 C 141.93 146.07 140.92 146.99 140.86 148.17 Z M 140.81 149.14 L 140.76 150.09 C 140.70 151.28 141.62 152.29 142.80 152.35 C 143.99 152.41 145.00 151.49 145.06 150.30 L 145.11 149.35 C 145.17 148.16 144.25 147.15 143.06 147.09 C 141.88 147.03 140.87 147.95 140.81 149.14 Z M 140.76 150.09 L 140.71 151.04 C 140.65 152.23 141.57 153.24 142.76 153.30 C 143.95 153.35 144.96 152.44 145.02 151.25 L 145.06 150.30 C 145.12 149.11 144.20 148.10 143.01 148.04 C 141.83 147.99 140.81 148.90 140.76 150.09 Z M 140.71 151.04 L 140.66 151.98 C 140.61 153.17 141.53 154.18 142.72 154.24 C 143.91 154.29 144.92 153.37 144.97 152.18 L 145.02 151.24 C 145.07 150.05 144.16 149.04 142.97 148.99 C 141.78 148.93 140.77 149.85 140.71 151.04 Z M 140.66 151.98 L 140.62 152.91 C 140.56 154.10 141.49 155.11 142.68 155.17 C 143.87 155.22 144.88 154.30 144.93 153.11 L 144.98 152.18 C 145.03 150.99 144.11 149.98 142.92 149.92 C 141.73 149.87 140.72 150.79 140.66 151.98 Z M 140.62 152.91 L 140.58 153.84 C 140.52 155.03 141.44 156.04 142.64 156.09 C 143.83 156.15 144.84 155.22 144.89 154.03 L 144.93 153.11 C 144.99 151.92 144.07 150.91 142.87 150.85 C 141.68 150.80 140.67 151.72 140.62 152.91 Z M 140.57 153.84 L 140.53 154.95 C 140.47 156.15 141.40 157.16 142.59 157.21 C 143.78 157.26 144.79 156.34 144.85 155.14 L 144.89 154.03 C 144.95 152.84 144.02 151.83 142.83 151.77 C 141.64 151.72 140.63 152.65 140.57 153.84 Z M 140.52 154.96 L 140.48 156.13 C 140.42 157.32 141.35 158.33 142.55 158.38 C 143.74 158.43 144.75 157.51 144.80 156.31 L 144.85 155.14 C 144.90 153.95 143.97 152.94 142.78 152.89 C 141.58 152.84 140.57 153.76 140.52 154.96 Z M 140.47 156.13 L 140.43 157.29 C 140.38 158.48 141.31 159.49 142.50 159.54 C 143.70 159.59 144.70 158.66 144.75 157.46 L 144.80 156.31 C 144.85 155.11 143.92 154.11 142.72 154.06 C 141.53 154.01 140.52 154.94 140.47 156.13 Z M 140.43 157.29 L 140.38 158.43 C 140.34 159.63 141.27 160.63 142.46 160.68 C 143.66 160.73 144.66 159.80 144.71 158.60 L 144.75 157.46 C 144.80 156.27 143.87 155.26 142.67 155.21 C 141.48 155.17 140.47 156.10 140.43 157.29 Z M 140.38 158.44 L 140.34 159.56 C 140.30 160.75 141.23 161.76 142.42 161.80 C 143.62 161.85 144.62 160.92 144.67 159.72 L 144.71 158.60 C 144.75 157.40 143.82 156.40 142.63 156.35 C 141.43 156.31 140.43 157.24 140.38 158.44 Z M 140.34 159.56 L 140.30 160.67 C 140.26 161.87 141.19 162.87 142.39 162.91 C 143.58 162.96 144.58 162.02 144.63 160.83 L 144.67 159.72 C 144.71 158.52 143.78 157.52 142.58 157.48 C 141.39 157.43 140.38 158.37 140.34 159.56 Z M 140.30 160.68 L 140.26 161.77 C 140.22 162.96 141.16 163.97 142.35 164.01 C 143.55 164.05 144.55 163.11 144.59 161.92 L 144.63 160.82 C 144.67 159.63 143.73 158.63 142.54 158.58 C 141.34 158.54 140.34 159.48 140.30 160.68 Z M 140.26 161.77 L 140.22 162.85 C 140.19 164.04 141.12 165.04 142.32 165.08 C 143.52 165.12 144.52 164.18 144.56 162.99 L 144.59 161.91 C 144.63 160.72 143.69 159.72 142.50 159.68 C 141.30 159.64 140.30 160.57 140.26 161.77 Z M 140.22 162.85 L 140.19 163.91 C 140.15 165.11 141.09 166.11 142.29 166.14 C 143.49 166.18 144.49 165.24 144.52 164.05 L 144.56 162.99 C 144.59 161.79 143.66 160.79 142.46 160.75 C 141.26 160.71 140.26 161.65 140.22 162.85 Z M 140.19 163.91 L 140.16 164.95 C 140.12 166.15 141.06 167.15 142.26 167.19 C 143.46 167.22 144.46 166.28 144.49 165.08 L 144.52 164.04 C 144.56 162.85 143.62 161.85 142.42 161.81 C 141.23 161.77 140.23 162.72 140.19 163.91 Z M 140.16 164.96 L 140.13 165.98 C 140.09 167.18 141.04 168.18 142.23 168.21 C 143.43 168.25 144.43 167.30 144.46 166.11 L 144.49 165.08 C 144.53 163.88 143.59 162.89 142.39 162.85 C 141.19 162.82 140.19 163.76 140.16 164.96 Z M 140.13 165.99 L 140.10 166.99 C 140.07 168.19 141.01 169.19 142.21 169.22 C 143.41 169.25 144.40 168.31 144.44 167.11 L 144.47 166.10 C 144.50 164.91 143.55 163.91 142.36 163.88 C 141.16 163.84 140.16 164.79 140.13 165.99 Z M 140.10 167.00 L 140.07 167.99 C 140.04 169.19 140.99 170.18 142.19 170.21 C 143.39 170.25 144.38 169.30 144.41 168.10 L 144.44 167.11 C 144.47 165.91 143.52 164.92 142.33 164.88 C 141.13 164.85 140.13 165.80 140.10 167.00 Z M 140.07 167.99 L 140.05 168.96 C 140.02 170.16 140.97 171.16 142.17 171.19 C 143.36 171.22 144.36 170.27 144.39 169.07 L 144.41 168.10 C 144.44 166.90 143.50 165.90 142.30 165.87 C 141.10 165.85 140.10 166.79 140.07 167.99 Z M 140.05 168.97 L 140.03 169.92 C 140.00 171.12 140.95 172.12 142.15 172.14 C 143.35 172.17 144.34 171.22 144.37 170.02 L 144.39 169.07 C 144.42 167.87 143.47 166.88 142.27 166.85 C 141.07 166.82 140.08 167.77 140.05 168.97 Z M 140.03 169.93 L 140.01 170.86 C 139.98 172.06 140.93 173.06 142.13 173.08 C 143.33 173.11 144.32 172.16 144.35 170.96 L 144.37 170.02 C 144.39 168.82 143.44 167.83 142.25 167.80 C 141.05 167.78 140.05 168.73 140.03 169.93 Z M 140.00 170.87 L 139.99 171.78 C 139.96 172.98 140.91 173.98 142.11 174.00 C 143.31 174.03 144.30 173.08 144.33 171.88 L 144.35 170.96 C 144.37 169.76 143.42 168.76 142.22 168.74 C 141.02 168.71 140.03 169.67 140.00 170.87 Z M 139.98 171.79 L 139.97 172.69 C 139.94 173.89 140.90 174.88 142.10 174.90 C 143.30 174.93 144.29 173.97 144.31 172.77 L 144.33 171.87 C 144.35 170.67 143.40 169.68 142.20 169.66 C 141.00 169.63 140.01 170.59 139.98 171.79 Z M 139.97 172.69 L 139.95 173.57 C 139.93 174.77 140.88 175.76 142.08 175.79 C 143.28 175.81 144.27 174.85 144.30 173.65 L 144.31 172.77 C 144.33 171.57 143.38 170.58 142.18 170.56 C 140.98 170.54 139.99 171.49 139.97 172.69 Z M 139.95 173.57 L 139.93 174.44 C 139.91 175.64 140.87 176.63 142.07 176.65 C 143.27 176.67 144.26 175.71 144.28 174.51 L 144.30 173.65 C 144.32 172.45 143.36 171.46 142.16 171.44 C 140.96 171.42 139.97 172.37 139.95 173.57 Z M 139.93 174.44 L 139.92 175.28 C 139.90 176.48 140.86 177.47 142.06 177.49 C 143.26 177.51 144.25 176.56 144.27 175.36 L 144.28 174.51 C 144.30 173.31 143.34 172.32 142.14 172.30 C 140.94 172.28 139.95 173.24 139.93 174.44 Z M 139.92 175.29 L 139.91 176.11 C 139.89 177.31 140.85 178.30 142.05 178.32 C 143.25 178.34 144.24 177.38 144.26 176.18 L 144.27 175.35 C 144.29 174.15 143.33 173.16 142.13 173.14 C 140.93 173.13 139.94 174.08 139.92 175.29 Z M 139.90 176.11 L 139.89 176.92 C 139.87 178.12 140.83 179.11 142.04 179.12 C 143.24 179.14 144.23 178.18 144.24 176.98 L 144.26 176.18 C 144.27 174.97 143.31 173.99 142.11 173.97 C 140.91 173.95 139.92 174.91 139.90 176.11 Z M 139.89 176.92 L 139.88 178.04 C 139.86 179.24 140.82 180.23 142.02 180.25 C 143.23 180.27 144.21 179.30 144.23 178.10 L 144.24 176.98 C 144.26 175.78 143.30 174.79 142.10 174.77 C 140.90 174.76 139.91 175.72 139.89 176.92 Z M 139.88 178.05 L 139.86 179.22 C 139.85 180.43 140.81 181.41 142.01 181.43 C 143.21 181.44 144.20 180.48 144.21 179.28 L 144.23 178.10 C 144.24 176.90 143.28 175.91 142.08 175.90 C 140.88 175.88 139.89 176.84 139.88 178.05 Z M 139.86 179.23 L 139.85 180.36 C 139.84 181.56 140.80 182.55 142.00 182.56 C 143.20 182.57 144.19 181.61 144.20 180.41 L 144.21 179.27 C 144.23 178.07 143.26 177.09 142.06 177.08 C 140.86 177.06 139.88 178.03 139.86 179.23 Z M 139.85 180.37 L 139.84 181.46 C 139.83 182.66 140.79 183.65 141.99 183.66 C 143.20 183.67 144.18 182.70 144.19 181.50 L 144.20 180.41 C 144.21 179.21 143.25 178.22 142.05 178.21 C 140.85 178.20 139.86 179.16 139.85 180.37 Z M 139.84 181.46 L 139.83 182.52 C 139.82 183.73 140.79 184.71 141.99 184.72 C 143.19 184.73 144.17 183.76 144.18 182.56 L 144.19 181.50 C 144.20 180.30 143.23 179.32 142.03 179.31 C 140.83 179.30 139.85 180.26 139.84 181.46 Z M 139.83 182.53 L 139.83 183.55 C 139.82 184.76 140.78 185.74 141.98 185.74 C 143.19 185.75 144.17 184.79 144.17 183.59 L 144.18 182.56 C 144.19 181.36 143.22 180.38 142.02 180.37 C 140.82 180.36 139.84 181.33 139.83 182.53 Z M 139.83 183.56 L 139.82 184.56 C 139.81 185.76 140.78 186.74 141.98 186.74 C 143.18 186.75 144.16 185.78 144.17 184.58 L 144.17 183.58 C 144.18 182.38 143.21 181.40 142.01 181.40 C 140.81 181.39 139.83 182.36 139.83 183.56 Z M 139.82 184.56 L 139.82 185.53 C 139.81 186.73 140.78 187.71 141.98 187.71 C 143.18 187.72 144.16 186.75 144.16 185.55 L 144.17 184.58 C 144.17 183.38 143.20 182.40 142.00 182.39 C 140.80 182.39 139.83 183.36 139.82 184.56 Z M 139.82 185.53 L 139.81 186.48 C 139.81 187.68 140.78 188.66 141.98 188.66 C 143.18 188.67 144.15 187.70 144.16 186.50 L 144.16 185.55 C 144.17 184.35 143.20 183.37 142.00 183.37 C 140.80 183.36 139.82 184.33 139.82 185.53 Z M 139.81 186.48 L 139.81 187.41 C 139.81 188.61 140.78 189.59 141.98 189.59 C 143.18 189.59 144.15 188.62 144.16 187.42 L 144.16 186.49 C 144.16 185.29 143.19 184.32 141.99 184.32 C 140.79 184.31 139.82 185.28 139.81 186.48 Z M 139.81 187.42 L 139.81 188.33 C 139.81 189.53 140.78 190.50 141.98 190.50 C 143.18 190.51 144.15 189.54 144.15 188.34 L 144.16 187.42 C 144.16 186.22 143.19 185.25 141.99 185.25 C 140.79 185.24 139.81 186.22 139.81 187.42 Z M 139.81 188.33 L 139.81 189.23 C 139.81 190.43 140.78 191.40 141.98 191.40 C 143.18 191.41 144.15 190.43 144.15 189.24 L 144.15 188.33 C 144.16 187.14 143.18 186.16 141.98 186.16 C 140.79 186.16 139.81 187.13 139.81 188.33 Z M 139.81 189.23 L 139.81 190.12 C 139.81 191.32 140.78 192.29 141.98 192.30 C 143.18 192.30 144.15 191.32 144.15 190.13 L 144.15 189.23 C 144.15 188.03 143.18 187.06 141.98 187.06 C 140.78 187.06 139.81 188.03 139.81 189.23 Z M 139.81 190.12 L 139.81 191.01 C 139.81 192.21 140.78 193.18 141.98 193.18 C 143.18 193.18 144.15 192.21 144.15 191.01 L 144.15 190.12 C 144.15 188.93 143.18 187.95 141.98 187.95 C 140.78 187.95 139.81 188.92 139.81 190.12 Z M 139.81 191.01 L 139.81 191.80 C 139.81 193.00 140.78 193.97 141.98 193.97 C 143.18 193.97 144.15 193.00 144.15 191.80 L 144.15 191.01 C 144.15 189.81 143.18 188.84 141.98 188.84 C 140.78 188.84 139.81 189.81 139.81 191.01 Z"
      fill="black"
      fill-rule="nonzero" /></svg>